<svg width="108" height="108" viewBox="0 0 108 108" fill="none" xmlns="http://www.w3.org/2000/svg">
<path d="M32.5 56.6875C40.025 56.6875 45.9375 50.775 45.9375 43.25V37.875H48.625C50.2375 37.875 51.3125 36.8 51.3125 35.1875V28.4688C51.3125 21.75 45.9375 16.375 39.2188 16.375C34.65 16.375 30.8875 18.7938 28.7375 22.5563C27.9312 22.0188 26.8563 21.75 25.7812 21.75C22.0188 21.75 19.0625 24.7063 19.0625 28.4688V43.25C19.0625 50.775 24.975 56.6875 32.5 56.6875Z" fill="black"/>
<path d="M91.625 62.0625H56.9563H56.6875C55.075 62.0625 54 63.1375 54 64.75C54 66.3625 55.075 67.4375 56.6875 67.4375H58.8375C58.8375 67.7062 58.5688 67.975 58.5688 68.5125L57.225 74.1562C56.4188 70.3937 53.7313 67.1687 50.2375 65.2875L45.9375 62.8687V62.0625C45.9375 60.9875 45.4 60.1812 44.5938 59.6437C43.7875 59.1062 42.7125 59.1062 41.9062 59.6437L32.5 65.5562L23.0938 59.6437C22.5562 59.375 22.0187 59.375 21.2125 59.375C20.9437 59.375 20.9437 59.375 20.675 59.375C20.1375 59.6437 19.6 59.9125 19.3312 60.45C19.0625 60.9875 19.0625 61.525 19.0625 62.0625V75.5C19.0625 76.575 19.6 77.3812 20.4062 77.9187C21.2125 78.4562 22.2875 78.4562 23.0938 77.9187L32.5 72.0062L41.9062 77.9187C42.175 78.1875 42.7125 78.1875 43.25 78.1875C43.5188 78.1875 43.5187 78.1875 43.7875 78.1875C44.0562 78.1875 44.0562 78.1875 44.325 78.1875C44.8625 77.9187 45.4 77.65 45.6687 77.1125C45.9375 76.575 45.9375 76.0375 45.9375 75.5V69.05L47.8187 70.125C50.2375 71.2 51.85 73.6187 52.1188 76.0375L54 89.475C54.2688 90.8187 55.3438 91.625 56.6875 91.8937C58.0312 91.8937 59.1062 91.0875 59.375 89.7437L63.9438 69.8562C64.2125 68.5125 65.2875 67.7062 66.6313 67.7062H73.35L65.825 73.6187C65.0187 73.8875 64.75 74.6937 64.75 75.5V91.625C64.75 93.2375 65.825 94.3125 67.4375 94.3125C69.05 94.3125 70.125 93.2375 70.125 91.625V76.8437L81.95 67.4375H91.625C93.2375 67.4375 94.3125 66.3625 94.3125 64.75C94.3125 63.1375 93.2375 62.0625 91.625 62.0625Z" fill="black"/>
<path d="M80.3375 47.2812C80.6063 46.475 80.875 45.6688 80.875 44.5938C80.875 40.8313 77.9188 37.875 74.1563 37.875C70.3938 37.875 67.4375 40.8313 67.4375 44.5938C67.4375 45.4 67.7063 46.475 67.975 47.2812C62.8688 49.4313 59.1063 54 57.4938 59.375H90.8188C89.2063 53.7313 85.4438 49.1625 80.3375 47.2812ZM74.1563 48.625C72.0063 48.625 70.125 46.7438 70.125 44.5938C70.125 42.4437 72.0063 40.5625 74.1563 40.5625C76.3063 40.5625 78.1875 42.4437 78.1875 44.5938C78.1875 46.7438 76.3063 48.625 74.1563 48.625Z" fill="black"/>
</svg>
