<svg width="108" height="108" viewBox="0 0 108 108" fill="none" xmlns="http://www.w3.org/2000/svg">
<path d="M40.4375 55.8828C45.2281 55.8828 48.9922 52.0156 48.9922 47.0938V43.5781H50.7031C51.7297 43.5781 52.4141 42.875 52.4141 41.8203V37.4258C52.4141 33.0312 48.9922 29.5156 44.7148 29.5156C41.8062 29.5156 39.4109 31.0977 38.0422 33.5586C37.5289 33.207 36.8445 33.0312 36.1602 33.0312C33.7648 33.0312 31.8828 34.9648 31.8828 37.4258V47.0938C31.8828 52.0156 35.6469 55.8828 40.4375 55.8828Z" fill="black"/>
<path d="M78.0781 59.3984H56.007H55.8359C54.8094 59.3984 54.125 60.1016 54.125 61.1562C54.125 62.2109 54.8094 62.9141 55.8359 62.9141H57.2047C57.2047 63.0898 57.0336 63.2656 57.0336 63.6172L56.1781 67.3086C55.6648 64.8477 53.9539 62.7383 51.7297 61.5078L48.9922 59.9258V59.3984C48.9922 58.6953 48.65 58.168 48.1367 57.8164C47.6234 57.4648 46.9391 57.4648 46.4258 57.8164L40.4375 61.6836L34.4492 57.8164C34.107 57.6406 33.7648 57.6406 33.2516 57.6406C33.0805 57.6406 33.0805 57.6406 32.9094 57.6406C32.5672 57.8164 32.225 57.9922 32.0539 58.3437C31.8828 58.6953 31.8828 59.0469 31.8828 59.3984V68.1875C31.8828 68.8906 32.225 69.418 32.7383 69.7695C33.2516 70.1211 33.9359 70.1211 34.4492 69.7695L40.4375 65.9023L46.4258 69.7695C46.5969 69.9453 46.9391 69.9453 47.2812 69.9453C47.4523 69.9453 47.4523 69.9453 47.6234 69.9453C47.7945 69.9453 47.7945 69.9453 47.9656 69.9453C48.3078 69.7695 48.65 69.5938 48.8211 69.2422C48.9922 68.8906 48.9922 68.5391 48.9922 68.1875V63.9688L50.1898 64.6719C51.7297 65.375 52.7563 66.957 52.9273 68.5391L54.125 77.3281C54.2961 78.207 54.9805 78.7344 55.8359 78.9102C56.6914 78.9102 57.3758 78.3828 57.5469 77.5039L60.4555 64.4961C60.6266 63.6172 61.3109 63.0898 62.1664 63.0898H66.4438L61.6531 66.957C61.1398 67.1328 60.9688 67.6602 60.9688 68.1875V78.7344C60.9688 79.7891 61.6531 80.4922 62.6797 80.4922C63.7063 80.4922 64.3906 79.7891 64.3906 78.7344V69.0664L71.9187 62.9141H78.0781C79.1047 62.9141 79.7891 62.2109 79.7891 61.1562C79.7891 60.1016 79.1047 59.3984 78.0781 59.3984Z" fill="black"/>
<path d="M70.8921 49.7305C71.0632 49.2031 71.2343 48.6758 71.2343 47.9727C71.2343 45.5117 69.3522 43.5781 66.9569 43.5781C64.5616 43.5781 62.6796 45.5117 62.6796 47.9727C62.6796 48.5 62.8507 49.2031 63.0218 49.7305C59.771 51.1367 57.3757 54.125 56.3491 57.6406H77.5647C76.5382 53.9492 74.1429 50.9609 70.8921 49.7305ZM66.9569 50.6094C65.5882 50.6094 64.3905 49.3789 64.3905 47.9727C64.3905 46.5664 65.5882 45.3359 66.9569 45.3359C68.3257 45.3359 69.5233 46.5664 69.5233 47.9727C69.5233 49.3789 68.3257 50.6094 66.9569 50.6094Z" fill="black"/>
</svg>
